PathFileType	4	(X/Y/Z)	RBDS027\RBDS027runT45.trc
DataRate	CameraRate	NumFrames	NumMarkers	Units	OrigDataRate	OrigDataStartFrame	OrigNumFrames
150.000000	150.000000	6	33	mm	150.000000	1125	4500
Frame#	Time	L.ASIS			L.Heel.Bottom			L.Heel.Lateral			L.Heel.Top			L.Iliac.Crest			L.MT1			L.MT5			L.PSIS			L.Shank.Bottom.Lateral			L.Shank.Bottom.Medial			L.Shank.Top.Lateral			L.Shank.Top.Medial			L.Thigh.Bottom.Lateral			L.Thigh.Bottom.Medial			L.Thigh.Top.Lateral			L.Thigh.Top.Medial			R.ASIS			R.ASY			R.Heel.Bottom			R.Heel.Lateral			R.Heel.Top			R.Iliac.Crest			R.MT1			R.MT5			R.PSIS			R.Shank.Bottom.Lateral			R.Shank.Bottom.Medial			R.Shank.Top.Lateral			R.Shank.Top.Medial			R.Thigh.Bottom.Lateral			R.Thigh.Bottom.Medial			R.Thigh.Top.Lateral			R.Thigh.Top.Medial			
		X1	Y1	Z1	X2	Y2	Z2	X3	Y3	Z3	X4	Y4	Z4	X5	Y5	Z5	X6	Y6	Z6	X7	Y7	Z7	X8	Y8	Z8	X9	Y9	Z9	X10	Y10	Z10	X11	Y11	Z11	X12	Y12	Z12	X13	Y13	Z13	X14	Y14	Z14	X15	Y15	Z15	X16	Y16	Z16	X17	Y17	Z17	X18	Y18	Z18	X19	Y19	Z19	X20	Y20	Z20	X21	Y21	Z21	X22	Y22	Z22	X23	Y23	Z23	X24	Y24	Z24	X25	Y25	Z25	X26	Y26	Z26	X27	Y27	Z27	X28	Y28	Z28	X29	Y29	Z29	X30	Y30	Z30	X31	Y31	Z31	X32	Y32	Z32	X33	Y33	Z33	

1126	7.500000000000001	2131.033153748126	862.977361136326	871.7715258495205	2176.444611626273	14.16637548120304	994.7468691707345	2203.849263473575	31.70560098426001	947.3974191311155	2188.890734612238	61.23590035773212	993.1595258302879	2067.859409141847	934.2381367686145	851.6184820869571	2396.602575375764	49.82471825747901	1012.467561653253	2351.149608138192	32.65562823555789	908.6422326562965	1986.424153161397	877.8419092229918	982.8282412276271	2230.110078620433	125.7557205294539	919.8593069202238	2197.696796484388	130.166080881312	964.8682013495488	2206.427432984729	199.2003327665332	897.4806120663641	2178.983255887946	205.7222900689727	943.8119593019737	2187.837231174582	519.0992055602708	842.5901611032596	2142.177311843165	492.660590034501	890.3180229983644	2117.995059842998	603.1553787585466	827.078434992375	2075.582996615668	579.2558270007623	874.3066101595879	2175.566744129125	823.5036874836652	1124.731248528142	1577.654728186463	453.9885584937803	1059.699361219702	1645.297196679187	634.2428111548336	1035.614100923197	1635.646049039053	602.0729966722866	1080.4741122544	1673.916640616777	599.1046872654048	1041.64837200802	2149.719415650304	913.5032605851118	1151.361085974157	1521.753298277815	456.3900627454112	996.741352476372	1530.894489713932	492.9228515680577	1110.423379009397	2011.134750657348	869.5981911245244	1076.822000477874	1705.81829804185	527.9272038956032	1101.896497170829	1724.8114589692	554.1034909690619	1062.550027141372	1784.778074172049	509.6107926091107	1126.875038875578	1800.698794879264	539.526897054811	1085.645123894898	2009.569553559517	465.6719871686672	1158.763051576452	1960.39241196963	480.3497734755879	1107.846526218744	2019.459620656449	573.6453253515383	1172.540029923023	1967.475484935289	587.0523462128074	1127.458672320906	
1127	7.506666666666667	2126.167674831195	858.2147688798813	870.966352518591	2147.438905069218	15.9944529792815	996.2881699478525	2175.67010444444	33.94864759806845	949.5313315664334	2162.399935223839	62.85482676450196	996.4756527091242	2061.450792757589	926.7940684279296	852.863814792616	2370.529286763804	41.77495004776998	1014.61666641001	2323.151933677777	29.84764322783527	909.953775282843	1983.346228398492	872.2673979443975	986.4414769482549	2209.475894269834	124.2485054071722	922.3255943156299	2176.89354174115	131.3842933059516	966.8487529732874	2190.707182515262	198.7536778127717	898.6683406019125	2163.337761003052	207.6279709275326	944.6094072121483	2183.720430417096	515.0832521705711	841.15802815064	2139.214723687729	488.4434554402667	889.9501980871624	2113.089699826857	598.809073368475	827.2046466675149	2071.815422075565	574.7421705856083	875.3985004738488	2175.320799380462	817.8779386084142	1123.651045564422	1596.224342830913	457.812749891573	1060.675840334827	1669.072057002781	635.7696419615518	1035.529711413912	1658.408266330751	604.2084051255197	1080.487887344537	1696.756655514004	599.9518018782597	1041.805600374809	2151.145151518059	906.4673230920399	1151.939654876517	1540.622272157274	461.6116751633555	997.5323614801284	1550.478101524615	498.3772037920858	1110.911632111985	2009.946804249434	863.437789810557	1079.695891673028	1726.476111292302	528.0608390150757	1102.511327267634	1746.629340698442	553.197761234169	1062.912205014905	1804.682302981329	506.8085321349137	1127.663734504752	1821.812653111964	535.837544064575	1086.236882444647	2020.775907753382	457.4966035711579	1160.229796676643	1971.760324386982	471.5992112153547	1109.039107972951	2026.250391246685	565.8286974719221	1173.452933492889	1973.85139422664	576.7411456645726	1128.393762914251	
1128	7.513333333333334	2121.323759632678	853.7146265375291	870.235662289209	2118.251270598817	17.9433670532194	997.4668710347391	2147.177130485939	36.49039938997234	951.3062730514303	2135.164208988273	64.58156025598517	999.2470657042315	2055.113131935375	919.1919647316092	854.0889634034571	2343.118791848344	36.04640276332149	1016.657025074718	2294.484926237608	28.67159776361396	911.2643598460885	1980.197586983092	867.3519350282797	989.6049212915464	2187.874078407573	123.7014712729945	924.2821139656172	2155.181888601341	133.533906935017	968.2357853654997	2174.075574126043	198.9578768716983	899.350669740529	2146.840064868951	210.1821050897688	944.8336435919547	2178.749268439956	511.0839719040613	839.436994910516	2135.388886288966	484.4217483165539	889.3540352116439	2107.724061871724	594.7761070095595	827.1024340529373	2067.524104521597	570.6733546935781	876.2401258245701	2174.515559045228	812.8474205067578	1122.734797296609	1615.69875213706	459.5970089215046	1061.95155086346	1692.060680532111	635.5261232289492	1035.277724201051	1680.900713706388	604.6917607815985	1080.481174017496	1719.097824841402	599.2918261332037	1041.747926720825	2151.631783433068	900.2251889895321	1152.48817912238	1560.033367707697	464.0751478798393	999.2300659924875	1570.920928679855	501.4868840789912	1112.067090064726	2008.321012008058	858.1573391689481	1082.088603316431	1747.421296529848	527.1272917506986	1103.115502887887	1768.425701484869	551.2286267720146	1063.158267981805	1825.021875317983	503.5083787983469	1128.235925442415	1843.031976297141	531.6594089177142	1086.552247881189	2033.080965686079	450.1421701581314	1161.813246401932	1984.2398203717	464.0152227949952	1110.305859741349	2033.6567448822	558.6403790942229	1174.615139179471	1980.92956727363	566.8255186525275	1129.574137661121	
1129	7.52	2116.608792635803	849.6130480205479	869.5309919060309	2088.97511540837	19.86177683813968	998.3212241247327	2118.439950013561	39.08807546957027	952.7042007004136	2107.28891166715	66.28724793344169	1001.43266191389	2048.999000576649	911.7436466948773	855.248335311745	2314.636069319456	32.43241894208066	1018.440127198215	2265.30359788601	28.74712553164523	912.4884423596662	1977.045444348728	863.2044078748728	992.259309325054	2165.339726118036	123.9019044049325	925.693439033603	2132.622503498084	136.3473681195306	969.0229831851325	2156.466502996697	199.6034519561589	899.5606742623168	2129.431460163897	213.1214772544512	944.5339590436048	2172.791212191239	507.1195503754766	837.6115869441965	2130.486721180756	480.6357097965454	888.6433772193635	2101.846971357964	591.1168153764006	826.8659350240408	2062.593560330944	567.1395542804032	876.8845829764723	2173.176327861743	808.5269622723808	1122.017055639419	1635.815885752907	459.2849670030163	1063.429169698931	1714.008187323032	633.695178748065	1035.04032613238	1702.869358349451	603.5773411961013	1080.586863453429	1740.701537651086	597.2662127747245	1041.610884313208	2150.982819244286	894.935893864223	1153.06704777915	1579.680867735636	463.8136983819956	1001.687776624176	1591.920259410526	502.113271547206	1113.814437162231	2006.296308851243	853.8097846851442	1083.958748215761	1768.434216719893	525.1647876111307	1103.741423635563	1789.951621576689	548.333930404058	1063.365793155275	1845.640411553763	499.8100846689903	1128.629429939236	1864.17852137921	527.1839164170963	1086.667081500197	2046.560472562748	443.7522890120027	1163.456431594369	1997.896336910194	457.663365973858	1111.583673839911	2041.751089527384	552.1624304379836	1175.970962944654	1988.792328438876	557.3976302108755	1130.958313254538	
1130	7.526666666666667	2112.136952572495	846.0095838075432	868.8144171296213	2059.638340258937	21.63214634628323	998.8970857350505	2089.481394659294	41.53871156511596	953.7288567415094	2078.856538213767	67.87380469493348	1003.031525638107	2043.263480690907	904.7819365342734	856.2901795000432	2285.343245851951	30.57751304307368	1019.868228808575	2235.733328466627	29.65704915048441	913.5592255569862	1973.967131193835	859.8973968312424	994.3691199867817	2141.916554314247	124.6034827723223	926.5761345415167	2109.270862694857	139.5309180433251	969.251032726867	2137.828049273687	200.4622273617462	899.3666575234162	2111.058324724546	216.1696718084965	943.7934577402482	2165.73120779599	503.193606865185	835.8619445591232	2124.312270773049	477.1058067079288	887.9295836476324	2095.408691147405	587.8623605432356	826.5893505696472	2056.914375875909	564.1998183421392	877.3910966862292	2171.36572941718	804.9965036238788	1121.517665787947	1656.337402308565	456.8467376351629	1065.017495317508	1734.662760778289	630.4311177796906	1034.994106007391	1724.048678616289	600.9105989515248	1080.923815009543	1761.328152444801	594.0057190527727	1041.525591320364	2149.101370962509	890.6945180859545	1153.726781367053	1599.339050194305	460.878298647108	1004.732407211467	1613.19693603771	500.1444762517292	1116.053369084928	2003.947859558661	850.4027684285645	1085.295976649612	1789.284607228875	522.2174286803075	1104.410624525092	1810.964893007573	544.6520578159553	1063.605960421615	1866.349011860363	495.8196805884368	1128.889670849663	1885.059035390503	522.5976195484444	1086.662921425847	2061.203955835248	438.4946294743567	1165.079907405292	2012.734749028796	452.5834084940882	1112.785844193585	2050.553799085617	546.4978196220469	1177.429540176063	1997.485374384673	548.5851344162822	1132.457233074651	
1131	7.533333333333334	2108.021519885333	842.9633064835259	868.0662339027206	2030.221909720535	23.18524537154303	999.247357557239	2060.294851805239	43.70384801664175	954.4085241797759	2049.933013639768	69.28669244658101	1004.084079635426	2038.063720447243	898.6287755179864	857.1579771237302	2255.480176653927	30.04494151500683	1020.904257794319	2205.87318210096	31.00722625242893	914.4392297690044	1971.043821307215	857.4663585820964	995.9195661393641	2117.657754912728	125.5710723109287	926.9981918376161	2085.178720577466	142.8129948594683	969.0061277560657	2118.130491745069	201.3284637012561	898.8672708087757	2091.681868347423	219.0823721306862	942.7244345690095	2157.484569516188	499.3098031068935	834.3435209306481	2116.707526007567	473.8464487366754	887.3071120120243	2088.369020437493	585.0260575548062	826.3558641911916	2050.397096241634	561.8906086943012	877.8159796310451	2169.178272941923	802.2979873939845	1121.23963435466	1677.062269419216	452.2819078512993	1066.637363138403	1753.781881484034	625.8437285793202	1035.286543996442	1744.171195702867	596.7256442354687	1081.581418923198	1780.74377248679	589.6188909090465	1041.602724859041	2146.004436550922	887.5285319106804	1154.49742041076	1618.871929672597	455.32718194031	1008.178595691535	1634.511257336836	495.5067645545806	1118.667531907331	2001.379158889713	847.9080983218714	1086.115641197995	1809.740514116649	518.331846389759	1105.132357527495	1831.237531224263	540.3098891979801	1063.937470161281	1886.93221195625	491.6409281333114	1129.065104933176	1905.467646386447	518.067509652364	1086.619475308643	2076.913300606775	434.5493497647379	1166.590527672202	2028.692607765425	448.7888154942796	1113.81767531148	2060.030839085649	541.7662248315634	1178.876543483307	2007.009451739367	540.5466676729003	1133.948184961205	
